<?xml version="1.0" standalone="no"?><!-- Generator: Adobe Fireworks CS5, Export SVG Extension by Aaron Beall (http://fireworks.abeall.com) . Version: 0.6.1  --><!DOCTYPE svg PUBLIC "-//W3C//DTD SVG 1.1//EN" "http://www.w3.org/Graphics/SVG/1.1/DTD/svg11.dtd"><svg id="RED%20LOGO-Page%201" viewBox="0 0 707 706" style="background-color:#ffffff00" version="1.1"	xmlns="http://www.w3.org/2000/svg" xmlns:xlink="http://www.w3.org/1999/xlink" xml:space="preserve"	x="0px" y="0px" width="707px" height="706px">	<g id="Layer%201">		<path d="M 82.272 48.4764 C 95.936 56.7559 316.4115 187.6819 316.4115 187.6819 C 316.4115 187.6819 332.109 197.4138 353.564 197.9861 L 353.564 198.3116 C 377.4392 197.9002 395.0495 187.6819 395.0495 187.6819 C 395.0495 187.6819 612.6218 56.7559 624.968 49.1258 C 639.3758 40.3846 624.968 30.7368 624.968 30.7368 C 595.967 11.3818 561.1385 0.0435 523.6518 0.0435 C 446.3455 0.0435 380.3181 48.0651 353.6165 115.8953 C 326.8958 48.0651 260.8857 0.0435 183.5812 0.0435 C 146.1033 0.0435 111.2817 11.3818 82.272 30.7368 C 82.272 30.7368 68.6255 40.1448 82.272 48.4764 Z" fill="#de241f"/>		<path d="M 198.7992 352.8716 L 199.123 352.8716 C 198.7047 328.9805 188.476 311.3598 188.476 311.3598 C 188.476 311.3598 57.5601 93.7981 49.9465 81.4675 C 41.1794 67.0616 31.5493 81.4675 31.5493 81.4675 C 12.1866 110.4684 0.8559 145.2901 0.8559 182.768 C 0.8559 260.0655 48.8785 326.1088 116.691 352.8209 C 48.8785 379.5309 0.8475 445.5498 0.8475 522.8122 C 0.8475 560.3252 12.1866 595.1205 31.5493 624.1216 C 31.5493 624.1216 40.9659 637.81 49.2799 624.1216 C 57.5772 610.4838 188.476 390.0257 188.476 390.0257 C 188.476 390.0257 198.2182 374.3195 198.7992 352.8716 Z" fill="#de241f"/>		<path d="M 624.968 657.1387 C 611.3058 648.8507 390.8285 517.9595 390.8285 517.9595 C 390.8285 517.9595 375.124 508.2014 353.6672 507.638 L 353.6672 507.3125 C 329.8095 507.722 312.1905 517.9595 312.1905 517.9595 C 312.1905 517.9595 94.6357 648.8682 82.272 656.4895 C 67.8573 665.2395 82.272 674.8611 82.272 674.8611 C 111.2817 694.2404 146.1033 705.5541 183.5812 705.5541 C 260.8857 705.5541 326.9308 657.55 353.6252 589.72 C 380.3267 657.55 446.3455 705.5541 523.6518 705.5541 C 561.1385 705.5541 595.967 694.2404 624.968 674.8611 C 624.968 674.8611 638.6057 665.4618 624.968 657.1387 Z" fill="#de241f"/>		<path d="M 590.5403 352.7857 C 658.3703 326.1088 706.3937 260.0655 706.3937 182.768 C 706.3937 145.2901 695.0538 110.4684 675.683 81.4675 C 675.683 81.4675 666.2662 67.821 657.9695 81.4675 C 649.6727 95.1316 518.7552 315.5982 518.7552 315.5982 C 518.7552 315.5982 509.006 331.287 508.4407 352.735 L 508.1082 352.735 C 508.5265 376.6259 518.7552 394.2468 518.7552 394.2468 C 518.7552 394.2468 649.6727 611.7998 657.3203 624.1216 C 666.044 638.58 675.683 624.1216 675.683 624.1216 C 695.0538 595.1205 706.3762 560.3252 706.3762 522.8122 C 706.3762 445.5498 658.3703 379.5152 590.5403 352.7857 Z" fill="#de241f"/>	</g></svg>